<?xml version="1.0" encoding="UTF-8" standalone="no"?>
<svg
   version="1.1"
   width="308.05307"
   height="308.05307"
   viewBox="0 0 308.05307 308.05307"
   id="svg1"
   sodipodi:docname="squircle-svg.com - 2024. 11. 15. 오전 2_34_26.svg"
   xmlns:inkscape="http://www.inkscape.org/namespaces/inkscape"
   xmlns:sodipodi="http://sodipodi.sourceforge.net/DTD/sodipodi-0.dtd"
   xmlns="http://www.w3.org/2000/svg"
   xmlns:svg="http://www.w3.org/2000/svg">
  <defs
     id="defs1" />
  <sodipodi:namedview
     id="namedview1"
     pagecolor="#ffffff"
     bordercolor="#000000"
     borderopacity="0.25"
     inkscape:showpageshadow="2"
     inkscape:pageopacity="0.0"
     inkscape:pagecheckerboard="0"
     inkscape:deskcolor="#d1d1d1">
    <inkscape:page
       x="0"
       y="0"
       width="308.05307"
       height="308.05307"
       id="page2"
       margin="0"
       bleed="0" />
  </sodipodi:namedview>
  <g
     fill="#ec4300"
     fill-rule="nonzero"
     stroke="#000000"
     stroke-width="8"
     stroke-linecap="butt"
     stroke-linejoin="miter"
     stroke-miterlimit="10"
     stroke-dasharray="none"
     stroke-dashoffset="0"
     font-family="none"
     font-weight="none"
     font-size="none"
     text-anchor="none"
     style="mix-blend-mode:normal;fill:#ec2f00;fill-opacity:1"
     id="g1"
     inkscape:export-filename="g1.svg"
     inkscape:export-xdpi="96"
     inkscape:export-ydpi="96"
     transform="translate(-65.973503,-85.972374)">
    <path
       transform="matrix(1.4731368,1.4731368,-1.4731368,1.4731368,249.46278,-437.644)"
       d="M 202.2,300 C 174.06667,300 160,285.93333 160,257.8 v -35.6 c 0,-28.13333 14.06667,-42.2 42.2,-42.2 h 35.6 c 28.13333,0 42.2,14.06667 42.2,42.2 v 35.6 c 0,28.13333 -14.06667,42.2 -42.2,42.2 z"
       id="path1"
       style="fill:#ec2f00;fill-opacity:1" />
  </g>
  <path
     style="fill:#ec2f00;fill-opacity:1;stroke:#000000;stroke-width:18.8976;stroke-linecap:square"
     d="m 86.008277,121.22581 c -3.2232,0.36636 -6.63676,-0.49289 -9.84055,0 -4.55711,0.70109 -13.76658,3.26321 -16.40091,7.65375 -1.35029,2.2505 -0.78461,4.18122 -0.54669,6.56037 0.28444,2.84449 -0.46878,2.67442 0.54669,5.46697 0.87951,2.41865 2.89822,6.63949 4.37358,8.74715 2.00115,2.85878 5.50181,4.53639 8.20045,6.56037 4.21678,3.16258 13.07663,8.61485 14.76082,13.66742 0.23051,0.69153 -0.10308,1.46519 0,2.18679 0.43909,3.07358 0.64756,2.967 -1.09339,6.01367 -4.70672,8.23676 -17.59786,5.84615 -24.60137,2.73348 -5.21391,-2.31729 -14.50666,-7.3996 -18.5877,-11.48063 -0.66195,-1.32391 -0.25856,-0.80526 -1.09339,-1.6401"
     id="path10" />
  <path
     style="fill:#ec2f00;fill-opacity:1;stroke:#000000;stroke-width:18.8976;stroke-linecap:square"
     d="m 108.42286,121.22581 c 5.04061,1.11198 10.20937,0.2468 15.30752,0.54669 4.25851,0.2505 3.79743,0.86806 7.65375,0.5467 2.96198,-0.24683 5.74743,-0.5467 8.74716,-0.5467"
     id="path11" />
  <path
     style="fill:#ec2f00;fill-opacity:1;stroke:#000000;stroke-width:18.8976;stroke-linecap:square"
     d="m 128.10395,124.50599 c -1.52822,18.38557 0,36.82138 0,55.2164"
     id="path12" />
  <path
     style="fill:#ec2f00;fill-opacity:1;stroke:#000000;stroke-width:18.8976;stroke-linecap:square"
     d="m 183.86705,121.22581 c -5.73043,5.91783 -11.27412,12.26424 -15.85421,19.13439 -1.04073,1.56109 -1.75018,3.3224 -2.73349,4.92028 -4.1971,6.82028 -0.70476,-0.46115 -1.64009,3.28018 -0.76985,3.07941 -1.91489,6.03108 -2.18679,9.29385 -0.72248,8.6698 0.009,19.15039 4.37358,26.78815 1.00747,1.76307 1.63726,3.60594 3.28018,4.92028 7.96632,6.37305 17.78446,0.70456 25.14806,-3.82688 4.43305,-2.72803 9.12629,-4.72479 12.57404,-8.74716 4.18006,-4.87674 4.74197,-10.23842 5.46697,-16.40091 0.19281,-1.63888 0.54669,-3.27009 0.54669,-4.92027 0,-1.4692 -0.45505,-2.90723 -0.54669,-4.37358 -0.29064,-4.65018 0.46306,-3.82484 -0.5467,-8.20045 -0.68452,-2.96624 -1.77486,-5.87128 -2.73349,-8.74716 -1.23507,-3.7052 -2.90328,-9.83308 -6.56036,-12.02733 -3.60233,-2.1614 -9.38464,-1.48072 -13.12073,-0.5467 -1.77673,0.44419 -3.6497,-0.31954 -5.46697,-0.54669 z"
     id="path13" />
  <path
     style="fill:#ec2f00;fill-opacity:1;stroke:#000000;stroke-width:18.8976;stroke-linecap:square"
     d="m 239.63015,119.03902 c -2.20021,19.9842 -1.0934,40.06624 -1.0934,60.13667 0,2.91572 0,5.83144 0,8.74715 0,0.77861 0.2406,2.01169 0,2.73349 -0.0815,0.24449 -0.54669,0.28898 -0.54669,0.5467 0,0.18223 0.54669,0.18223 0.54669,0 0,-0.18224 -0.36446,0 -0.54669,0"
     id="path14" />
  <path
     style="fill:#ec2f00;fill-opacity:0;stroke:#000000;stroke-width:18.8976;stroke-linecap:square"
     d="m 253.84427,122.8659 c 5.71778,2.45048 2.02536,0.59307 7.10706,3.82688 3.49377,2.22331 9.45116,4.61345 10.38724,9.29385 0.43698,2.18489 -0.33432,4.43659 -0.5467,6.56037 -0.18218,1.82182 0.021,3.21714 -0.54669,4.92027 -0.48727,1.46179 -1.80812,2.67016 -2.73349,3.82688 -0.82091,1.02613 -1.25758,2.35097 -2.18679,3.28018 -0.4646,0.4646 -1.14122,0.66579 -1.64009,1.09339 -4.27667,3.66572 -7.01792,5.76664 -12.57403,6.56037 -2.07677,0.29668 -4.45263,0 -6.56036,0 -0.92396,0 -1.64009,0.75879 -1.64009,0"
     id="path15" />
</svg>
